<!--?xml version="1.0" encoding="utf-8"?-->
<!-- Generator: Adobe Illustrator 18.1.1, SVG Export Plug-In . SVG Version: 6.00 Build 0)  -->

<svg version="1.1" id="_x32_" xmlns="http://www.w3.org/2000/svg" xmlns:xlink="http://www.w3.org/1999/xlink" x="0px" y="0px" viewBox="0 0 512 512" style="width: 256px; height: 256px; opacity: 1;" xml:space="preserve">
<style type="text/css">
	.st0{fill:#4B4B4B;}
</style>
<g>
	<path class="st0" d="M502.396,219.684c-12.981-42.177-37.832-42.039-37.832-42.039c-44.135,29.434-131.074,31.483-155.36,24.018
		c-16.606-5.109-29.013-19.566-29.013-19.566l-34.512-31.82c0,0-7.442-9.148-17.746-11.206c-4.673-0.933-13.218,1.859-20.132,6.571
		c-36.103,24.569-100.983,47.057-136.26,48.816c-42.031,2.111-100.882,46.246-54.644,115.6
		c40.272,60.404,159.734,63.051,231.192,63.051c35.728,0,87.94-40.303,87.94-40.303c2.823-1.3,6.12-1.07,8.736,0.62
		c2.623,1.682,4.207,4.574,4.207,7.679v14.013c0,8.781,7.106,15.895,15.887,15.895c0,0,32.447,0,49.267,0
		c16.812,0,52.541-4.207,67.251-21.02C515.001,307.953,519.208,274.329,502.396,219.684z" style="fill: rgb(75, 75, 75);"></path>
</g>
</svg>
